<svg aria-hidden="true" style="width:0;height:0;position:absolute;overflow:hidden" xmlns="http://www.w3.org/2000/svg"><defs><symbol id="fullorrange" viewBox="0 0 35 32"><path fill="#fd5103" style="fill:var(--color1,#fd5103)" d="m17.684 32-2.564-2.302C6.013 21.554 0 16.183 0 9.591 0 4.22 4.28 0 9.726 0c3.077 0 6.03 1.413 7.958 3.645C19.612 1.413 22.565 0 25.642 0c5.447 0 9.726 4.22 9.726 9.591 0 6.592-6.013 11.963-15.12 20.124l-2.564 2.284z"/><path fill="#fd5103" style="fill:#fd5103" d="m17.684 28.632-2.076-1.817c-7.373-6.429-12.24-10.67-12.24-15.874 0-4.24 3.464-7.572 7.874-7.572 2.491 0 4.882 1.115 6.442 2.877 1.56-1.762 3.951-2.877 6.442-2.877 4.409 0 7.874 3.332 7.874 7.572 0 5.204-4.867 9.444-12.24 15.888l-2.076 1.803z"/></symbol><symbol id="icon-black" viewBox="0 0 35 32"><path fill="#fd5103" style="fill:var(--color1,#fd5103)" d="m17.684 32-2.564-2.302C6.013 21.554 0 16.183 0 9.591 0 4.22 4.28 0 9.726 0c3.077 0 6.03 1.413 7.958 3.645C19.612 1.413 22.565 0 25.642 0c5.447 0 9.726 4.22 9.726 9.591 0 6.592-6.013 11.963-15.12 20.124l-2.564 2.284z"/><path d="m17.684 28.632-2.076-1.817c-7.373-6.429-12.24-10.67-12.24-15.874 0-4.24 3.464-7.572 7.874-7.572 2.491 0 4.882 1.115 6.442 2.877 1.56-1.762 3.951-2.877 6.442-2.877 4.409 0 7.874 3.332 7.874 7.572 0 5.204-4.867 9.444-12.24 15.888l-2.076 1.803z"/></symbol><symbol id="icon-arrow-left" viewBox="0 0 20 32"><path d="m7.16 16 12.532 12.445L16.112 32 0 16 16.112 0l3.58 3.555L7.16 16z"/></symbol><symbol id="icon-arrow-right-black" viewBox="0 0 18 32"><path d="M11.821 16.001.507 4.687l3.232-3.232 14.546 14.546L3.739 30.547.507 27.315l11.314-11.314z"/></symbol></defs></svg>