<svg aria-hidden="true" style="width:0;height:0;position:absolute;overflow:hidden" xmlns="http://www.w3.org/2000/svg"><defs><symbol id="icon-arrow-left" viewBox="0 0 20 32"><path d="m7.16 16 12.532 12.445L16.112 32 0 16 16.112 0l3.58 3.555L7.16 16z"/></symbol><symbol id="icon-arrow-right-orange" viewBox="0 0 18 32"><path fill="#fe7031" style="fill:var(--color1,#fe7031)" d="M11.821 16.001.507 4.687l3.232-3.232 14.546 14.546L3.739 30.547.507 27.315l11.314-11.314z"/></symbol><symbol id="icon-arrow-right-black" viewBox="0 0 18 32"><path d="M11.821 16.001.507 4.687l3.232-3.232 14.546 14.546L3.739 30.547.507 27.315l11.314-11.314z"/></symbol><symbol id="icon-arrow-down-white" viewBox="0 0 52 32"><path fill="#fcfcfc" style="fill:var(--color2,#fcfcfc)" d="m3.371 6.373 22.628 22.628L48.627 6.373l-2.828-2.828-19.8 19.8-19.8-19.8-2.828 2.828z"/></symbol><symbol id="icon-arrow-down-orange" viewBox="0 0 52 32"><path fill="#fd5103" style="fill:var(--color3,#fd5103)" d="m3.371 6.373 22.628 22.628L48.627 6.373l-2.828-2.828-19.8 19.8-19.8-19.8-2.828 2.828z"/></symbol><symbol id="icon-arrow-down" viewBox="0 0 52 32"><path d="m3.371 6.373 22.628 22.628L48.627 6.373l-2.828-2.828-19.8 19.8-19.8-19.8-2.828 2.828z"/></symbol><symbol id="icon-menu-white" viewBox="0 0 56 32"><path fill="#fcfcfc" style="fill:var(--color2,#fcfcfc)" d="M1.882.941h52.706a1.882 1.882 0 1 1 0 3.764H1.882a1.882 1.882 0 1 1 0-3.764zM1.882 14.118h52.706a1.882 1.882 0 1 1 0 3.764H1.882a1.882 1.882 0 1 1 0-3.764zM1.882 27.294h52.706a1.882 1.882 0 1 1 0 3.764H1.882a1.882 1.882 0 1 1 0-3.764z"/></symbol><symbol id="icon-heart-transparent" viewBox="0 0 35 32"><path fill="none" stroke="#fd5103" style="stroke:var(--color3,#fd5103)" stroke-width="3.368" d="m16.245 28.445-.002-.002c-4.588-4.103-8.258-7.389-10.802-10.455-2.525-3.044-3.757-5.661-3.757-8.396 0-4.419 3.503-7.907 8.042-7.907 2.576 0 5.068 1.191 6.683 3.061l1.275 1.476 1.275-1.476c1.615-1.871 4.107-3.061 6.683-3.061 4.539 0 8.042 3.488 8.042 7.907 0 2.735-1.232 5.352-3.757 8.399-2.544 3.069-6.213 6.359-10.801 10.469l-.002.002-1.436 1.279-1.443-1.296z"/></symbol><symbol id="icon-hert" viewBox="0 0 35 32"><path fill="#fd5103" style="fill:var(--color3,#fd5103)" d="m17.684 32-2.564-2.302C6.013 21.554 0 16.183 0 9.591 0 4.22 4.28 0 9.726 0c3.077 0 6.03 1.413 7.958 3.645C19.612 1.413 22.565 0 25.642 0c5.447 0 9.726 4.22 9.726 9.591 0 6.592-6.013 11.963-15.12 20.124l-2.564 2.284z"/><path fill="#fcfcfc" style="fill:var(--color2,#fcfcfc)" d="m17.684 28.632-2.076-1.817c-7.373-6.429-12.24-10.67-12.24-15.874 0-4.24 3.464-7.572 7.874-7.572 2.491 0 4.882 1.115 6.442 2.877 1.56-1.762 3.951-2.877 6.442-2.877 4.409 0 7.874 3.332 7.874 7.572 0 5.204-4.867 9.444-12.24 15.888l-2.076 1.803z"/></symbol><symbol id="icon-close_24px" viewBox="0 0 32 32"><path d="M31.439 3.166 28.273 0 15.72 12.553 3.167 0 .001 3.166l12.553 12.553L.001 28.272l3.166 3.166L15.72 18.885l12.553 12.553 3.166-3.166-12.553-12.553L31.439 3.166z"/></symbol><symbol id="icon-heart-orange" viewBox="0 0 35 32"><path fill="#fd5103" style="fill:var(--color3,#fd5103)" d="m17.684 32-2.564-2.302C6.013 21.554 0 16.183 0 9.591 0 4.22 4.28 0 9.726 0c3.077 0 6.03 1.413 7.958 3.645C19.612 1.413 22.565 0 25.642 0c5.447 0 9.726 4.22 9.726 9.591 0 6.592-6.013 11.963-15.12 20.124l-2.564 2.284z"/></symbol><symbol id="icon-search" viewBox="0 0 31 32"><path fill="#fd5103" style="fill:var(--color3,#fd5103)" d="M12.8 23.68c2.272 0 4.478-.761 6.268-2.161l5.627 5.627 1.81-1.81-5.627-5.627a10.184 10.184 0 0 0 2.162-6.269c0-5.646-4.594-10.24-10.24-10.24S2.56 7.794 2.56 13.44 7.154 23.68 12.8 23.68zm0-17.92c4.236 0 7.68 3.444 7.68 7.68s-3.444 7.68-7.68 7.68-7.68-3.444-7.68-7.68 3.444-7.68 7.68-7.68z"/></symbol><symbol id="icon-close-white" viewBox="0 0 32 32"><path fill="#fcfcfc" style="fill:var(--color2,#fcfcfc)" d="m18.229 16 13.1-13.1A1.58 1.58 0 0 0 29.101.672l-13.1 13.1L2.901.656A1.586 1.586 0 1 0 .657 2.9L13.773 16 .657 29.1a1.593 1.593 0 0 0-.552 1.139 1.573 1.573 0 0 0 .462 1.178 1.587 1.587 0 0 0 1.178.462 1.585 1.585 0 0 0 1.139-.552L16 18.227l13.1 13.1a1.58 1.58 0 0 0 2.228-2.228l-13.1-13.1z"/></symbol><symbol id="icon-menu-black" viewBox="0 0 56 32"><path d="M1.882.941h52.706a1.882 1.882 0 1 1 0 3.764H1.882a1.882 1.882 0 1 1 0-3.764zM1.882 14.118h52.706a1.882 1.882 0 1 1 0 3.764H1.882a1.882 1.882 0 1 1 0-3.764zM1.882 27.294h52.706a1.882 1.882 0 1 1 0 3.764H1.882a1.882 1.882 0 1 1 0-3.764z"/></symbol><symbol id="icon-burger" viewBox="0 0 56 32"><path d="M1.882.941h52.706a1.882 1.882 0 1 1 0 3.764H1.882a1.882 1.882 0 1 1 0-3.764zM1.882 14.118h52.706a1.882 1.882 0 1 1 0 3.764H1.882a1.882 1.882 0 1 1 0-3.764zM1.882 27.294h52.706a1.882 1.882 0 1 1 0 3.764H1.882a1.882 1.882 0 1 1 0-3.764z"/></symbol><symbol id="icon-burger-close" viewBox="0 0 32 32"><path d="m18.228 16 13.1-13.1A1.58 1.58 0 0 0 29.1.672L16 13.772 2.9.656A1.586 1.586 0 1 0 .656 2.9L13.772 16 .656 29.1a1.593 1.593 0 0 0-.552 1.139 1.572 1.572 0 0 0 1.003 1.532 1.578 1.578 0 0 0 1.776-.444l13.116-13.1 13.1 13.1a1.58 1.58 0 0 0 2.228-2.229l-13.1-13.1z"/></symbol></defs></svg>